<svg width="500" height="120" viewBox="0 0 500 120" xmlns="http://www.w3.org/2000/svg">
  <title>Righash logo</title>
  <g transform="translate(60, 60)">
    <rect x="-35" y="-35" width="70" height="70" rx="6" fill="none" stroke="#000000" stroke-width="3"/>
    <line x1="-12" y1="-35" x2="-12" y2="35" stroke="#000000" stroke-width="3" stroke-linecap="round"/>
    <line x1="12" y1="-35" x2="12" y2="35" stroke="#000000" stroke-width="3" stroke-linecap="round"/>
    <line x1="-35" y1="-12" x2="35" y2="-12" stroke="#000000" stroke-width="3" stroke-linecap="round"/>
    <line x1="-35" y1="12" x2="35" y2="12" stroke="#000000" stroke-width="3" stroke-linecap="round"/>
    <rect x="-45" y="-25" width="10" height="4" fill="#000000"/>
    <rect x="-45" y="-2" width="10" height="4" fill="#000000"/>
    <rect x="-45" y="21" width="10" height="4" fill="#000000"/>
    <rect x="35" y="-25" width="10" height="4" fill="#000000"/>
    <rect x="35" y="-2" width="10" height="4" fill="#000000"/>
    <rect x="35" y="21" width="10" height="4" fill="#000000"/>
    <rect x="-25" y="-45" width="4" height="10" fill="#000000"/>
    <rect x="-2" y="-45" width="4" height="10" fill="#000000"/>
    <rect x="21" y="-45" width="4" height="10" fill="#000000"/>
    <rect x="-25" y="35" width="4" height="10" fill="#000000"/>
    <rect x="-2" y="35" width="4" height="10" fill="#000000"/>
    <rect x="21" y="35" width="4" height="10" fill="#000000"/>
  </g>
  <text x="160" y="74" font-family="ui-monospace, 'SF Mono', Menlo, Consolas, monospace" font-size="44" font-weight="500" fill="#000000">righash</text>
  <text x="160" y="100" font-family="ui-monospace, 'SF Mono', Menlo, Consolas, monospace" font-size="11" fill="#000000" opacity="0.6" letter-spacing="3">MINING DASHBOARD</text>
</svg>
